# Blender 5.0.0
# www.blender.org
mtllib Coin.mtl
o Circle
v 0.000000 0.000000 -10.000000
v -1.950903 0.000000 -9.807853
v -3.826835 0.000000 -9.238795
v -5.555702 0.000000 -8.314696
v -7.071068 0.000000 -7.071068
v -8.314696 0.000000 -5.555702
v -9.238795 0.000000 -3.826835
v -9.807853 0.000000 -1.950903
v -10.000000 0.000000 0.000000
v -9.807853 0.000000 1.950903
v -9.238795 0.000000 3.826835
v -8.314696 0.000000 5.555702
v -7.071068 0.000000 7.071068
v -5.555702 0.000000 8.314696
v -3.826835 0.000000 9.238795
v -1.950903 0.000000 9.807853
v 0.000000 0.000000 10.000000
v 1.950903 0.000000 9.807853
v 3.826835 0.000000 9.238795
v 5.555702 0.000000 8.314696
v 7.071068 0.000000 7.071068
v 8.314696 0.000000 5.555702
v 9.238795 0.000000 3.826835
v 9.807853 0.000000 1.950903
v 10.000000 0.000000 0.000000
v 9.807853 0.000000 -1.950903
v 9.238795 0.000000 -3.826835
v 8.314696 0.000000 -5.555702
v 7.071068 0.000000 -7.071068
v 5.555702 0.000000 -8.314696
v 3.826835 0.000000 -9.238795
v 1.950903 0.000000 -9.807853
v 0.000000 2.000000 -10.000000
v -1.950903 2.000000 -9.807853
v -3.826835 2.000000 -9.238795
v -5.555702 2.000000 -8.314696
v -7.071068 2.000000 -7.071068
v -8.314696 2.000000 -5.555702
v -9.238795 2.000000 -3.826835
v -9.807853 2.000000 -1.950903
v -10.000000 2.000000 0.000000
v -9.807853 2.000000 1.950903
v -9.238795 2.000000 3.826835
v -8.314696 2.000000 5.555702
v -7.071068 2.000000 7.071068
v -5.555702 2.000000 8.314696
v -3.826835 2.000000 9.238795
v -1.950903 2.000000 9.807853
v 0.000000 2.000000 10.000000
v 1.950903 2.000000 9.807853
v 3.826835 2.000000 9.238795
v 5.555702 2.000000 8.314696
v 7.071068 2.000000 7.071068
v 8.314696 2.000000 5.555702
v 9.238795 2.000000 3.826835
v 9.807853 2.000000 1.950903
v 10.000000 2.000000 0.000000
v 9.807853 2.000000 -1.950903
v 9.238795 2.000000 -3.826835
v 8.314696 2.000000 -5.555702
v 7.071068 2.000000 -7.071068
v 5.555702 2.000000 -8.314696
v 3.826835 2.000000 -9.238795
v 1.950903 2.000000 -9.807853
vn -0.2903 -0.0000 0.9569
vn -0.2903 -0.0000 -0.9569
vn 0.6344 -0.0000 -0.7730
vn -0.0980 -0.0000 0.9952
vn -0.4714 -0.0000 -0.8819
vn 0.4714 -0.0000 -0.8819
vn 0.0980 -0.0000 0.9952
vn -0.6344 -0.0000 -0.7730
vn 0.2903 -0.0000 -0.9569
vn 0.2903 -0.0000 0.9569
vn -0.7730 -0.0000 -0.6344
vn 0.0980 -0.0000 -0.9952
vn 0.4714 -0.0000 0.8819
vn -0.8819 -0.0000 -0.4714
vn 0.6344 -0.0000 0.7730
vn -0.9569 -0.0000 -0.2903
vn 0.7730 -0.0000 0.6344
vn -0.9952 -0.0000 -0.0980
vn 0.8819 -0.0000 0.4714
vn -0.9952 -0.0000 0.0980
vn 0.9569 -0.0000 0.2903
vn -0.9569 -0.0000 0.2903
vn 0.9952 -0.0000 0.0980
vn -0.8819 -0.0000 0.4714
vn 0.9952 -0.0000 -0.0980
vn -0.7730 -0.0000 0.6344
vn 0.9569 -0.0000 -0.2903
vn -0.6344 -0.0000 0.7730
vn 0.8819 -0.0000 -0.4714
vn -0.4714 -0.0000 0.8819
vn -0.0980 -0.0000 -0.9952
vn 0.7730 -0.0000 -0.6344
vn -0.0000 1.0000 -0.0000
vn -0.0000 -1.0000 -0.0000
vt 0.702687 0.879202
vt 0.772771 0.832373
vt 0.804340 0.870840
vt 0.726145 0.923088
vt 0.120798 0.297313
vt 0.088542 0.375186
vt 0.040923 0.360740
vt 0.076912 0.273855
vt 0.457855 0.072098
vt 0.375186 0.088542
vt 0.360740 0.040923
vt 0.452978 0.022576
vt 0.832373 0.772771
vt 0.870840 0.804340
vt 0.072098 0.457855
vt 0.022576 0.452978
vt 0.297313 0.120798
vt 0.273855 0.076912
vt 0.879202 0.702687
vt 0.923088 0.726145
vt 0.072098 0.542145
vt 0.022576 0.547022
vt 0.227229 0.167627
vt 0.195660 0.129160
vt 0.911458 0.624814
vt 0.959077 0.639260
vt 0.088542 0.624814
vt 0.040923 0.639259
vt 0.167627 0.227229
vt 0.129160 0.195660
vt 0.927902 0.542145
vt 0.977424 0.547022
vt 0.120798 0.702687
vt 0.076912 0.726145
vt 0.927902 0.457855
vt 0.977424 0.452978
vt 0.167627 0.772771
vt 0.129160 0.804340
vt 0.911458 0.375186
vt 0.959077 0.360741
vt 0.227229 0.832373
vt 0.195660 0.870840
vt 0.879202 0.297313
vt 0.923088 0.273855
vt 0.297313 0.879202
vt 0.273855 0.923088
vt 0.832373 0.227229
vt 0.870840 0.195660
vt 0.375186 0.911458
vt 0.360740 0.959077
vt 0.772771 0.167627
vt 0.804340 0.129160
vt 0.457855 0.927902
vt 0.452978 0.977424
vt 0.702687 0.120798
vt 0.726145 0.076912
vt 0.542145 0.927902
vt 0.547022 0.977424
vt 0.624814 0.088542
vt 0.639260 0.040923
vt 0.624814 0.911458
vt 0.639260 0.959077
vt 0.542145 0.072098
vt 0.547022 0.022576
vt 0.077062 0.273935
vt 0.129292 0.195768
vt 0.195768 0.129292
vt 0.273935 0.077062
vt 0.360790 0.041086
vt 0.452995 0.022745
vt 0.547006 0.022745
vt 0.639210 0.041086
vt 0.726065 0.077062
vt 0.804232 0.129292
vt 0.870708 0.195768
vt 0.922938 0.273935
vt 0.958914 0.360790
vt 0.977255 0.452994
vt 0.977255 0.547005
vt 0.958914 0.639210
vt 0.922938 0.726065
vt 0.870708 0.804232
vt 0.804232 0.870708
vt 0.726065 0.922938
vt 0.639210 0.958914
vt 0.547006 0.977255
vt 0.452995 0.977255
vt 0.360790 0.958914
vt 0.273935 0.922938
vt 0.195768 0.870708
vt 0.129292 0.804232
vt 0.077062 0.726065
vt 0.041086 0.639210
vt 0.022745 0.547005
vt 0.022745 0.452994
vt 0.041086 0.360790
s 0
usemtl Material.001
f 15/1/1 16/2/1 48/3/1 47/4/1
f 2/5/2 3/6/2 35/7/2 34/8/2
f 29/9/3 30/10/3 62/11/3 61/12/3
f 16/2/4 17/13/4 49/14/4 48/3/4
f 3/6/5 4/15/5 36/16/5 35/7/5
f 30/10/6 31/17/6 63/18/6 62/11/6
f 17/13/7 18/19/7 50/20/7 49/14/7
f 4/15/8 5/21/8 37/22/8 36/16/8
f 31/17/9 32/23/9 64/24/9 63/18/9
f 18/19/10 19/25/10 51/26/10 50/20/10
f 5/21/11 6/27/11 38/28/11 37/22/11
f 32/23/12 1/29/12 33/30/12 64/24/12
f 19/25/13 20/31/13 52/32/13 51/26/13
f 6/27/14 7/33/14 39/34/14 38/28/14
f 20/31/15 21/35/15 53/36/15 52/32/15
f 7/33/16 8/37/16 40/38/16 39/34/16
f 21/35/17 22/39/17 54/40/17 53/36/17
f 8/37/18 9/41/18 41/42/18 40/38/18
f 22/39/19 23/43/19 55/44/19 54/40/19
f 9/41/20 10/45/20 42/46/20 41/42/20
f 23/43/21 24/47/21 56/48/21 55/44/21
f 10/45/22 11/49/22 43/50/22 42/46/22
f 24/47/23 25/51/23 57/52/23 56/48/23
f 11/49/24 12/53/24 44/54/24 43/50/24
f 25/51/25 26/55/25 58/56/25 57/52/25
f 12/53/26 13/57/26 45/58/26 44/54/26
f 26/55/27 27/59/27 59/60/27 58/56/27
f 13/57/28 14/61/28 46/62/28 45/58/28
f 27/59/29 28/63/29 60/64/29 59/60/29
f 14/61/30 15/1/30 47/4/30 46/62/30
f 1/29/31 2/5/31 34/8/31 33/30/31
f 28/63/32 29/9/32 61/12/32 60/64/32
f 34/65/33 35/66/33 36/67/33 37/68/33 38/69/33 39/70/33 40/71/33 41/72/33 42/73/33 43/74/33 44/75/33 45/76/33 46/77/33 47/78/33 48/79/33 49/80/33 50/81/33 51/82/33 52/83/33 53/84/33 54/85/33 55/86/33 56/87/33 57/88/33 58/89/33 59/90/33 60/91/33 61/92/33 62/93/33 63/94/33 64/95/33 33/96/33
f 2/5/34 1/29/34 32/23/34 31/17/34 30/10/34 29/9/34 28/63/34 27/59/34 26/55/34 25/51/34 24/47/34 23/43/34 22/39/34 21/35/34 20/31/34 19/25/34 18/19/34 17/13/34 16/2/34 15/1/34 14/61/34 13/57/34 12/53/34 11/49/34 10/45/34 9/41/34 8/37/34 7/33/34 6/27/34 5/21/34 4/15/34 3/6/34
